<svg width="62" height="62" viewBox="0 0 62 62" fill="none" xmlns="http://www.w3.org/2000/svg">
<g clip-path="url(#clip0_105_11)">
<rect width="61.5" height="61.5" rx="30.75" fill="#007BFF"/>
<path d="M23.3875 37.8707C9.07095 31.0587 -11.359 13.2018 -14.3042 10.4444L-6.274 7.56459C-5.29121 10.1977 14.5205 24.5823 25.0874 30.3404C25.7123 27.8774 26.3465 25.6645 26.9376 23.8299C31.7314 9.99862 47.6736 11.7789 49.6342 20.3756C50.6841 24.9793 44.8876 35.6044 34.7417 40.0552C34.2413 40.2748 33.6817 40.4107 33.0696 40.4701C32.7391 48.1552 33.2262 56.3619 34.2686 61.2109L22.5331 68.9285C19.9308 61.5814 21.2215 48.7641 23.3875 37.8707Z" fill="white"/>
<path d="M-14.3042 10.4444C-10.3838 14.1149 24.5181 44.5402 34.7417 40.0552C44.8876 35.6044 50.6841 24.9793 49.6342 20.3756C47.6736 11.7789 31.7314 9.99862 26.9376 23.8299C23.5061 34.4804 18.6213 57.8844 22.5331 68.9285L34.2686 61.2109C32.2076 51.6233 32.3175 28.9096 36.6249 23.0552C42.0091 15.7372 42.6839 33.1068 30.8573 32.7237C25.669 32.5556 -5.0442 10.8595 -6.274 7.56459L-14.3042 10.4444Z" stroke="#007BFF" stroke-width="0.984"/>
</g>
<defs>
<clipPath id="clip0_105_11">
<rect width="61.5" height="61.5" rx="30.75" fill="white"/>
</clipPath>
</defs>
</svg>
